#N canvas 0 31 1222 712 10;
#X declare -path zexy -lib zexy;
#X floatatom 26 113 0 0 0 0 - - - 0;
#X msg 126 208 help;
#X msg 488 63 \; pd dsp 1;
#X text 727 146 note: there will be a break at 64 samples (signal-vector!);
#X obj 130 178 tgl 15 0 empty empty on/off 0 -6 0 8 #fcfcfc #000000 #000000 0 1;
#X floatatom 120 428 0 0 0 0 - - - 0;
#N canvas 159 26 495 266 output 0;
#X obj 338 160 t b;
#X obj 338 110 f;
#X obj 338 60 inlet;
#X text 344 29 mute;
#X obj 338 185 f;
#X msg 425 178 0;
#X msg 338 85 bang;
#X obj 338 135 moses 1;
#X obj 425 153 t b f;
#X obj 397 117 moses 1;
#X obj 83 148 dbtorms;
#X obj 22 181 inlet~;
#X obj 199 41 inlet;
#X text 199 18 level;
#X msg 96 65 set \$1;
#X obj 96 89 outlet;
#X msg 214 64 \; pd dsp 1;
#X obj 83 194 line~;
#X obj 22 212 *~;
#X obj 22 241 dac~;
#X obj 83 171 pack 0 50;
#X text 20 158 audio;
#X text 93 110 show level;
#X obj 83 42 r \$0master-lvl;
#X obj 397 92 r \$0master-lvl;
#X obj 338 210 s \$0master-lvl;
#X obj 199 100 s \$0master-lvl;
#X connect 0 0 4 0;
#X connect 1 0 7 0;
#X connect 2 0 6 0;
#X connect 4 0 25 0;
#X connect 5 0 25 0;
#X connect 6 0 1 0;
#X connect 7 0 0 0;
#X connect 7 1 8 0;
#X connect 8 0 5 0;
#X connect 9 1 4 1;
#X connect 10 0 20 0;
#X connect 11 0 18 0;
#X connect 12 0 16 0;
#X connect 12 0 26 0;
#X connect 14 0 15 0;
#X connect 17 0 18 1;
#X connect 18 0 19 0;
#X connect 18 0 19 1;
#X connect 20 0 17 0;
#X connect 23 0 10 0;
#X connect 23 0 14 0;
#X connect 24 0 1 1;
#X connect 24 0 9 0;
#X restore 95 450 pd output;
#X msg 146 428 MUTE;
#X text 115 409 output amplitude;
#X text 595 41 part of zexy;
#N canvas 515 193 494 344 META 0;
#X text 12 135 HELP_PATCH_AUTHORS "pd meta" information added by Jonathan Wilkes for Pd version 0.42.;
#X text 12 25 LICENSE GPL v2;
#X text 12 5 KEYWORDS signal block_oriented;
#X text 12 115 AUTHOR IOhannes m zmoelnig;
#X text 12 75 INLET_0 float signal help;
#X text 12 95 OUTLET_0 signal;
#X text 12 45 DESCRIPTION play back a signal-vector in a time-reversed way!;
#X obj 41 244 declare -path zexy -lib zexy;
#X restore 673 12 pd META;
#X obj 737 175 cnv 18 200 300 empty empty block1 20 312 0 10 #feffc6 #404040 0;
#X obj 937 175 cnv 18 200 300 empty empty block2 20 312 0 10 #e3c6ff #404040 0;
#N canvas 0 0 450 300 (subpatch) 0;
#X array \$0-warp 128 float 2;
#A color 0;
#A width 2;
#X coords 0 1 127 -1 400 300 1;
#X restore 738 174 graph;
#X obj 737 525 cnv 18 200 150 empty empty block1 20 162 0 10 #feffc6 #404040 0;
#X obj 937 525 cnv 18 200 150 empty empty block2 20 162 0 10 #e3c6ff #404040 0;
#N canvas 0 0 450 300 (subpatch) 0;
#X array \$0-orig 128 float 2;
#A color 0;
#A width 2;
#X coords 0 1 127 -1 400 150 1;
#X restore 738 524 graph;
#X obj 282 259 t b b;
#X obj 27 294 tabwrite~ \$0-orig;
#X obj 147 294 tabwrite~ \$0-warp;
#N canvas 0 50 450 250 (subpatch) 0;
#X array \$0-warper 64 float 3;
#A 0 0 1 2 3 4 5 6 7 8 9 10 11 12 13 14 15 16 17 18 19 20 21 22 23 24 25 26 27 28 29 30 31 32 33 34 35 36 37 38 39 40 41 42 43 44 45 46 47 48 49 50 51 52 53 54 55 56 57 58 59 60 61 62 63;
#A color 0;
#A width 2;
#X coords 0 64 64 0 192 140 1;
#X restore 414 425 graph;
#X obj 95 235 blockwarp4~ \$0-warper;
#X obj 26 207 +~;
#N canvas 941 335 744 429 warpcontrol 0;
#X obj 21 24 inlet;
#X obj 21 47 pack s 64;
#X obj 21 70 list trim;
#X obj 21 183 until;
#X obj 21 206 i;
#X obj 21 229 t f f;
#X obj 21 252 t f f;
#X obj 62 208 + 1;
#X msg 64 183 0;
#X obj 21 160 t f b;
#X obj 281 404 tabwrite \$0-warper;
#X obj 171 183 until;
#X obj 171 206 i;
#X obj 171 229 t f f;
#X obj 212 218 + 1;
#X msg 214 183 0;
#X obj 171 252 t f f;
#X obj 171 275 -;
#X obj 171 298 * -1;
#X obj 171 160 t f b f;
#X obj 171 351 pack, f 5;
#X obj 21 275 pack, f 5;
#X obj 281 183 until;
#X obj 281 206 i;
#X obj 281 229 t f f;
#X obj 281 252 t f f;
#X obj 322 208 + 1;
#X msg 324 183 0;
#X obj 281 160 t f b;
#X obj 281 365 pack, f 5;
#X obj 281 273 / 32;
#X obj 281 340 * 32;
#X obj 281 315 wrap 2;
#X obj 281 296 + 1;
#X obj 391 183 until;
#X obj 391 206 i;
#X obj 391 229 t f f;
#X obj 391 252 t f f;
#X obj 432 208 + 1;
#X msg 434 183 0;
#X obj 391 365 pack, f 5;
#X obj 391 297 t f f;
#X obj 391 320 *;
#X obj 448 274 t f f;
#X obj 391 274 / 63;
#X obj 391 343 * 63;
#X obj 391 160 t f b f;
#X obj 448 246 - 1;
#X obj 511 183 until;
#X obj 511 206 i;
#X obj 511 229 t f f;
#X obj 511 252 t f f;
#X obj 552 208 + 1;
#X msg 554 183 0;
#X obj 511 365 pack, f 5;
#X obj 568 274 t f f;
#X obj 511 274 / 63;
#X obj 511 343 * 63;
#X obj 511 160 t f b f;
#X obj 568 246 - 1;
#X msg 650 129 64;
#X obj 511 297 sqrt;
#X obj 650 183 until;
#X obj 650 206 i;
#X obj 650 229 t f f;
#X obj 650 252 t f f;
#X obj 691 208 + 1;
#X msg 693 183 0;
#X obj 650 160 t f b;
#X obj 650 295 pack, f 5;
#X obj 650 274 / 2;
#X obj 21 97 route none mirror swap square sqrt halfblock;
#X obj 119 20 loadbang;
#X msg 119 43 none;
#X obj 211 253 - 1;
#X connect 0 0 1 0;
#X connect 1 0 2 0;
#X connect 2 0 71 0;
#X connect 3 0 4 0;
#X connect 4 0 5 0;
#X connect 5 0 6 0;
#X connect 5 1 7 0;
#X connect 6 0 21 0;
#X connect 6 1 21 1;
#X connect 7 0 4 1;
#X connect 8 0 4 1;
#X connect 9 0 3 0;
#X connect 9 1 8 0;
#X connect 11 0 12 0;
#X connect 12 0 13 0;
#X connect 13 0 16 0;
#X connect 13 1 14 0;
#X connect 14 0 12 1;
#X connect 15 0 12 1;
#X connect 16 0 17 0;
#X connect 16 1 20 1;
#X connect 17 0 18 0;
#X connect 18 0 20 0;
#X connect 19 0 11 0;
#X connect 19 1 15 0;
#X connect 19 2 74 0;
#X connect 20 0 10 0;
#X connect 21 0 10 0;
#X connect 22 0 23 0;
#X connect 23 0 24 0;
#X connect 24 0 25 0;
#X connect 24 1 26 0;
#X connect 25 0 30 0;
#X connect 25 1 29 1;
#X connect 26 0 23 1;
#X connect 27 0 23 1;
#X connect 28 0 22 0;
#X connect 28 1 27 0;
#X connect 29 0 10 0;
#X connect 30 0 33 0;
#X connect 31 0 29 0;
#X connect 32 0 31 0;
#X connect 33 0 32 0;
#X connect 34 0 35 0;
#X connect 35 0 36 0;
#X connect 36 0 37 0;
#X connect 36 1 38 0;
#X connect 37 0 44 0;
#X connect 37 1 40 1;
#X connect 38 0 35 1;
#X connect 39 0 35 1;
#X connect 40 0 10 0;
#X connect 41 0 42 0;
#X connect 41 1 42 1;
#X connect 42 0 45 0;
#X connect 43 0 44 1;
#X connect 43 1 45 1;
#X connect 44 0 41 0;
#X connect 45 0 40 0;
#X connect 46 0 34 0;
#X connect 46 1 39 0;
#X connect 46 2 47 0;
#X connect 47 0 43 0;
#X connect 48 0 49 0;
#X connect 49 0 50 0;
#X connect 50 0 51 0;
#X connect 50 1 52 0;
#X connect 51 0 56 0;
#X connect 51 1 54 1;
#X connect 52 0 49 1;
#X connect 53 0 49 1;
#X connect 54 0 10 0;
#X connect 55 0 56 1;
#X connect 55 1 57 1;
#X connect 56 0 61 0;
#X connect 57 0 54 0;
#X connect 58 0 48 0;
#X connect 58 1 53 0;
#X connect 58 2 59 0;
#X connect 59 0 55 0;
#X connect 60 0 68 0;
#X connect 61 0 57 0;
#X connect 62 0 63 0;
#X connect 63 0 64 0;
#X connect 64 0 65 0;
#X connect 64 1 66 0;
#X connect 65 0 70 0;
#X connect 65 1 69 1;
#X connect 66 0 63 1;
#X connect 67 0 63 1;
#X connect 68 0 62 0;
#X connect 68 1 67 0;
#X connect 69 0 10 0;
#X connect 70 0 69 0;
#X connect 71 0 9 0;
#X connect 71 1 19 0;
#X connect 71 2 28 0;
#X connect 71 3 46 0;
#X connect 71 4 58 0;
#X connect 71 5 68 0;
#X connect 72 0 73 0;
#X connect 73 0 1 0;
#X connect 74 0 17 1;
#X restore 466 338 pd warpcontrol;
#X msg 439 230 none;
#X msg 484 230 mirror;
#X msg 537 230 swap;
#X obj 439 283 t b a;
#X msg 282 239 bang;
#X msg 489 265 square;
#X msg 539 265 sqrt;
#X obj 101 12 blockwarp4~;
#X text 191 13 warp sample indices of a block (4pt-interpolation);
#X msg 503 298 halfblock;
#X text 289 446 warping table maps input indices to output indices, f 18;
#X obj 26 150 osc~ 375;
#X connect 0 0 35 0;
#X connect 1 0 21 0;
#X connect 4 0 21 0;
#X connect 5 0 6 1;
#X connect 6 0 5 0;
#X connect 7 0 6 2;
#X connect 17 0 18 0;
#X connect 17 1 19 0;
#X connect 21 0 6 0;
#X connect 21 0 19 0;
#X connect 22 0 21 0;
#X connect 22 0 18 0;
#X connect 24 0 27 0;
#X connect 25 0 27 0;
#X connect 26 0 27 0;
#X connect 27 0 28 0;
#X connect 27 1 23 0;
#X connect 28 0 17 0;
#X connect 29 0 27 0;
#X connect 30 0 27 0;
#X connect 33 0 27 0;
#X connect 35 0 22 0;
