#N canvas 1203 450 450 300 12;
#X obj 42 41 inlet~;
#N canvas 735 418 450 300 write 0;
#X obj 48 29 inlet~;
#X obj 48 54 tabsend~ \$0.block;
#X obj 46 117 outlet~ dummy;
#X connect 0 0 1 0;
#X restore 42 91 pd write;
#N canvas 735 418 450 300 tabreceive 0;
#X obj 37 37 inlet~;
#X obj 37 147 tabreceive~ \$1;
#X obj 37 172 outlet~;
#X obj 76 67 route set;
#X obj 76 92 list prepend set;
#X obj 76 117 list trim;
#X connect 0 1 3 0;
#X connect 1 0 2 0;
#X connect 3 0 4 0;
#X connect 4 0 5 0;
#X connect 5 0 1 0;
#X restore 42 116 pd tabreceive;
#X obj 43 176 tabread4~ \$0.block;
#X obj 212 183 table \$0.block 262144;
#X obj 43 201 outlet~;
#X connect 0 0 1 0;
#X connect 0 1 2 0;
#X connect 1 0 2 0;
#X connect 2 0 3 0;
#X connect 3 0 5 0;
