#N canvas 218 265 454 349 10;
#X text 301 325 updated for zexy-2.0;
#X floatatom 168 198 5 0 0 1 z - - 0;
#X floatatom 134 156 5 0 0 1 phi - - 0;
#X obj 134 174 t b f;
#X floatatom 124 138 5 0 0 1 r - - 0;
#X floatatom 168 268 0 0 0 0 theta - - 0;
#X floatatom 146 288 0 0 0 0 phi - - 0;
#X floatatom 124 308 0 0 0 0 R - - 0;
#X msg 22 210 1 2 3;
#X obj 124 246 pol2sph;
#X text 24 31 [pol2sph]: convert polar coordinates to spherical coordinates
;
#X text 21 76 all angles are in rad.;
#X text 19 192 r phi z;
#X text 330 12 part of zexy;
#N canvas 690 246 494 237 META 0;
#X text 12 175 LICENSE GPL v2;
#X text 12 195 AUTHOR IOhannes m zmoelnig;
#X text 12 155 KEYWORDS control coordinates;
#X text 12 71 INLET_2 float;
#X text 12 53 INLET_1 float;
#X text 12 35 INLET_0 float;
#X text 12 95 OUTLET_0 float;
#X text 12 113 OUTLET_1 float;
#X text 12 131 OUTLET_2 float;
#X text 12 15 DESCRIPTION convert polar coordinates to spherical coordinates
, f 76;
#X restore 361 302 pd META;
#X connect 1 0 9 2;
#X connect 2 0 3 0;
#X connect 3 0 9 0;
#X connect 3 1 9 1;
#X connect 4 0 9 0;
#X connect 8 0 9 0;
#X connect 9 0 7 0;
#X connect 9 1 6 0;
#X connect 9 2 5 0;
