#N canvas 241 100 450 496 10;
#X declare -path zexy -lib zexy;
#X obj 136 344 segregate;
#X obj 136 447 print BANG;
#X obj 145 430 print FLOAT;
#X obj 155 413 print SYMBOL;
#X obj 175 379 print POINTER;
#X obj 165 396 print LIST;
#X floatatom 155 226 0 0 0 0 - - - 0;
#X symbolatom 171 255 0 0 0 0 - - - 0;
#X msg 136 197 bang;
#X msg 184 281 1 2 3 4;
#X msg 185 307 come on \, my house;
#X text 131 31 segregate;
#X text 51 87 segregates the inputs by their type;
#X text 50 112 known types (in order of their outlets)::;
#X text 93 131 BANG \, FLOAT \, SYMBOL \, LIST \, POINTER;
#X text 86 196 bang;
#X text 86 226 float;
#X text 87 256 symbol;
#X text 88 309 anythings;
#X text 87 284 list;
#X text 313 15 part of zexy;
#X text 281 468 updated for zexy-2.0;
#X obj 185 362 print unknown;
#N canvas 437 484 503 272 META 0;
#X text 12 211 LICENSE GPL v2;
#X text 12 231 AUTHOR IOhannes m zmoelnig;
#X text 12 75 OUTLET_1 float;
#X text 12 15 DESCRIPTION separates inputs by their type (selector), f 54;
#X text 12 35 INLET_0 message;
#X text 12 191 KEYWORDS dataflow;
#X text 12 55 OUTLET_0 bang;
#X text 12 95 OUTLET_2 symbol;
#X text 12 115 OUTLET_0 list;
#X text 12 135 OUTLET_1 ponter;
#X text 12 155 OUTLET_2 unknown;
#X obj 275 220 declare -path zexy -lib zexy;
#X restore 361 442 pd META;
#X connect 0 0 1 0;
#X connect 0 1 2 0;
#X connect 0 2 3 0;
#X connect 0 3 5 0;
#X connect 0 4 4 0;
#X connect 0 5 22 0;
#X connect 6 0 0 0;
#X connect 7 0 0 0;
#X connect 8 0 0 0;
#X connect 9 0 0 0;
#X connect 10 0 0 0;
