#N canvas 201 257 575 388 10;
#X obj 92 103 sig~;
#X text 272 20 part of zexy;
#X text 351 61 updated for zexy-2.0;
#X obj 93 178 snapshot~;
#X floatatom 93 204 5 0 0 0 - - - 0;
#X obj 146 153 metro 100;
#X obj 146 131 tgl 15 0 empty empty empty 0 -6 0 8 #fcfcfc #000000
#000000 0 1;
#X floatatom 92 81 5 0 0 0 - - - 0;
#X text 16 243 note:;
#X text 45 283 performance is worse than with the external version
;
#X text 45 315 if you want to use the external version of this object
\, you have to load zexy;
#X text 43 255 this is the abstraction version of this object \, which
is using [expr~];
#X obj 92 152 sgn~;
#X text 67 46 signum of a signal;
#N canvas 498 241 494 173 META 0;
#X text 12 25 LICENSE GPL v2;
#X text 12 115 AUTHOR IOhannes m zmoelnig;
#X text 12 5 KEYWORDS signal;
#X text 12 65 INLET_0 signal;
#X text 12 85 OUTLET_0 signal;
#X text 12 45 DESCRIPTION signum of a signal;
#X restore 493 347 pd META;
#X connect 0 0 12 0;
#X connect 3 0 4 0;
#X connect 5 0 3 0;
#X connect 6 0 5 0;
#X connect 7 0 0 0;
#X connect 12 0 3 0;
