#N canvas 116 95 499 300 10;
#X text 303 9 part of zexy;
#N canvas 509 158 494 201 META 0;
#X text 12 25 LICENSE GPL v2;
#X text 12 115 AUTHOR IOhannes m zmoelnig;
#X text 12 5 KEYWORDS control;
#X text 12 45 DESCRIPTION reads environment variables;
#X text 12 65 INLET_0 symbol;
#X text 12 85 OUTLET_0 symbol;
#X text 12 135 HELP_PATCH_AUTHORS IOhannes m zmölnig;
#X restore 442 275 pd META;
#X obj 34 32 envvar;
#X text 104 34 read an environment variable;
#X obj 144 140 envvar;
#X obj 144 162 print ENV;
#X msg 144 84 symbol PATH;
#X listbox 144 109 20 0 0 0 - - - 0;
#X msg 236 84 symbol HOME;
#X obj 216 162 print oops;
#X connect 4 0 5 0;
#X connect 4 1 9 0;
#X connect 6 0 7 0;
#X connect 7 0 4 0;
#X connect 8 0 7 0;
