#N canvas 553 320 450 300 10;
#X text 148 51 takes long to load;
#X obj 35 51 longload 5000;
#X text 30 119 the optional argument specifies the time (in ms) \,
this object takes to instantiate.;
#X text 36 158 the default is 1000ms.;
#N canvas 828 294 494 174 META 0;
#X text 12 65 LICENSE GPL v2;
#X text 12 85 AUTHOR IOhannes m zmoelnig;
#X text 12 15 DESCRIPTION takes long to load;
#X text 12 45 KEYWORDS experimental;
#X restore 373 257 pd META;
